<?xml version="1.0" encoding="UTF-8"?>
<svg width="547.14" height="115.24" version="1.1" viewBox="0 0 547.14317 115.23984" xml:space="preserve" xmlns="http://www.w3.org/2000/svg"><path d="m153.54 46.539c-0.2 0.4-0.5 0.7-0.8 1-0.3 0.2-0.7 0.3-1.1 0.3-0.5 0-0.9-0.1-1.3-0.4-0.5-0.3-1-0.5-1.6-0.9-0.7-0.3-1.3-0.6-2-0.9-0.8-0.3-1.7-0.4-2.6-0.4-1.4-0.1-2.7 0.3-3.8 1.1-0.8 0.7-1.3 1.8-1.2 2.9 0 0.7 0.2 1.4 0.8 2s1.2 1 2 1.3c0.9 0.4 1.8 0.8 2.8 1 1 0.3 2.1 0.7 3.2 1 1.1 0.4 2.2 0.8 3.2 1.4 1 0.5 2 1.2 2.8 2s1.5 1.8 2 2.9c0.5 1.3 0.8 2.7 0.8 4.2 0 1.7-0.3 3.4-0.9 5.1-0.6 1.5-1.5 2.9-2.7 4.1-1.3 1.2-2.8 2.2-4.4 2.8-1.9 0.7-3.9 1-5.9 1-1.2 0-2.5-0.1-3.7-0.4-1.2-0.2-2.5-0.6-3.7-1.1-1.2-0.4-2.3-1-3.3-1.6s-1.9-1.3-2.7-2.1l2.7-4.2c0.2-0.3 0.5-0.6 0.8-0.8 0.4-0.2 0.7-0.3 1.2-0.3 0.6 0 1.1 0.2 1.6 0.5s1.2 0.7 1.8 1.1c0.8 0.4 1.5 0.8 2.4 1.1 1 0.4 2.1 0.5 3.2 0.5 1.4 0.1 2.7-0.3 3.8-1.1 1-0.9 1.5-2.1 1.4-3.4 0-0.8-0.2-1.6-0.8-2.2-0.5-0.6-1.2-1.1-2-1.4-0.9-0.4-1.8-0.7-2.8-1s-2.1-0.6-3.2-0.9c-1.1-0.4-2.2-0.8-3.2-1.3s-2-1.2-2.8-2c-0.9-0.9-1.5-2-2-3.1-0.5-1.5-0.8-3-0.8-4.6 0-1.5 0.3-2.9 0.9-4.3s1.5-2.7 2.6-3.7c1.2-1.1 2.6-2 4.2-2.6 1.8-0.7 3.8-1 5.7-1 1.2 0 2.3 0.1 3.5 0.3 1.1 0.2 2.2 0.5 3.2 0.8 1 0.4 1.9 0.8 2.9 1.3 0.9 0.5 1.6 1.1 2.4 1.7z"/><path d="m179.64 77.639c-0.6 0-1.2-0.1-1.7-0.3-0.5-0.3-0.8-0.8-1-1.3l-0.6-1.5c-0.7 0.6-1.3 1.1-1.9 1.5s-1.3 0.8-1.9 1.1c-0.7 0.3-1.4 0.5-2.1 0.7-0.8 0.2-1.7 0.2-2.5 0.2-1.1 0-2.3-0.1-3.4-0.5-0.9-0.3-1.8-0.8-2.6-1.4-0.7-0.6-1.3-1.4-1.6-2.3-0.4-1-0.6-2.1-0.6-3.2 0-1 0.3-2 0.7-2.9 0.6-1.1 1.5-2.1 2.5-2.8 1.5-1 3.1-1.7 4.8-2.1 2.5-0.6 5.1-0.9 7.7-0.8v-1.2c0.1-1.2-0.2-2.5-1-3.5-0.7-0.7-1.7-1.1-2.8-1.1-0.8 0-1.6 0.1-2.3 0.3-0.6 0.2-1.1 0.4-1.6 0.7s-0.9 0.5-1.4 0.7-1.1 0.3-1.6 0.3-1-0.1-1.4-0.4-0.7-0.6-0.9-1l-1.5-2.5c1.6-1.4 3.4-2.5 5.4-3.2 2.1-0.7 4.2-1.1 6.4-1.1 1.5 0 3 0.2 4.4 0.8 1.3 0.5 2.4 1.2 3.3 2.2s1.6 2.1 2.1 3.4c0.5 1.4 0.7 2.8 0.7 4.3v16.8h-3.6zm-9.3-4.9c0.9 0 1.9-0.2 2.7-0.5 0.9-0.4 1.7-1 2.4-1.8v-3.7c-1.3 0-2.7 0.1-4 0.3-0.9 0.1-1.7 0.4-2.5 0.8-0.5 0.2-1 0.6-1.3 1.1-0.2 0.4-0.4 0.8-0.4 1.3-0.1 0.7 0.2 1.5 0.8 2 0.7 0.4 1.5 0.6 2.3 0.5z"/><path d="m203.24 77.639h-7.3l-10.5-27h6.7c0.5 0 1 0.1 1.4 0.4 0.4 0.2 0.6 0.6 0.8 1l3.7 12.1c0.3 1 0.6 1.9 0.8 2.9s0.5 1.9 0.7 2.8c0.2-0.9 0.4-1.9 0.7-2.8s0.6-1.9 0.9-2.9l3.9-12.1c0.1-0.4 0.4-0.8 0.8-1 0.4-0.3 0.9-0.4 1.4-0.4h6.4z"/><path d="m227.94 50.239c1.7 0 3.3 0.3 4.9 0.8 1.4 0.5 2.7 1.3 3.8 2.4s2 2.4 2.5 3.9c0.6 1.7 0.9 3.4 0.9 5.2 0 0.5 0 1-0.1 1.5 0 0.3-0.1 0.6-0.3 0.9-0.1 0.2-0.3 0.4-0.6 0.5s-0.6 0.1-0.9 0.1h-15.6c0.1 1.8 0.8 3.6 2.1 4.9 1.2 1 2.7 1.6 4.3 1.5 0.8 0 1.6-0.1 2.4-0.3 0.6-0.2 1.2-0.5 1.8-0.8 0.5-0.3 1-0.5 1.5-0.8 0.4-0.2 0.9-0.3 1.4-0.3 0.6 0 1.1 0.2 1.5 0.7l2.3 2.9c-0.8 0.9-1.7 1.7-2.7 2.3-0.9 0.6-1.9 1.1-3 1.4-1 0.3-2 0.6-3 0.7s-1.9 0.2-2.9 0.2c-1.8 0-3.6-0.3-5.3-0.9-1.6-0.6-3.1-1.5-4.3-2.7-1.3-1.3-2.3-2.8-2.9-4.5-0.8-2-1.1-4.1-1.1-6.3 0-1.7 0.3-3.5 0.9-5.1 1.2-3.2 3.7-5.8 6.8-7.1 1.8-0.7 3.7-1.1 5.6-1.1zm0.2 5.6c-1.3-0.1-2.6 0.4-3.6 1.3-1 1.1-1.6 2.4-1.7 3.8h10.1c0-0.6-0.1-1.3-0.2-1.9-0.2-0.6-0.4-1.1-0.8-1.6s-0.9-0.9-1.5-1.2c-0.8-0.3-1.6-0.4-2.3-0.4z"/><path d="m264.94 78.039c-1.2 0-2.3-0.2-3.4-0.6-1.9-0.7-3.4-2.2-4-4.1-0.4-1-0.5-2.1-0.5-3.2v-13.9h-2.3c-0.8 0-1.5-0.6-1.5-1.4v-3.3l4.3-0.8 1.6-6.6c0.2-0.8 0.9-1.4 1.8-1.2h4.2v7.9h6.6v5.5h-6.6v13.4c0 0.6 0.1 1.1 0.5 1.5 0.3 0.4 0.8 0.6 1.3 0.6 0.3 0 0.5 0 0.7-0.1s0.4-0.1 0.5-0.2 0.3-0.1 0.4-0.2 0.3-0.1 0.5-0.1 0.4 0 0.6 0.2l0.5 0.5 2.4 3.8c-1.1 0.8-2.2 1.4-3.5 1.8-1.3 0.3-2.7 0.5-4.1 0.5z"/><path d="m276.24 77.639v-38.9h8.1v14.3c1-0.8 2-1.5 3.2-2 1.3-0.5 2.7-0.8 4.1-0.8 1.3 0 2.7 0.2 3.9 0.8 1.1 0.5 2.1 1.2 2.9 2.1 0.8 1 1.4 2.1 1.8 3.2 0.4 1.3 0.6 2.7 0.6 4.1v17.1h-8.1v-17c0.1-1.1-0.3-2.2-0.9-3.1-0.7-0.8-1.7-1.2-2.7-1.1-0.9 0-1.7 0.2-2.5 0.6s-1.6 0.9-2.2 1.5v19.2z"/><path d="m318.14 50.239c1.7 0 3.3 0.3 4.9 0.8 1.4 0.5 2.7 1.3 3.8 2.4s2 2.4 2.5 3.9c0.6 1.7 0.9 3.4 0.9 5.2 0 0.5 0 1-0.1 1.5 0 0.3-0.1 0.6-0.3 0.9-0.1 0.2-0.3 0.4-0.6 0.5s-0.6 0.1-0.9 0.1h-15.5c0.1 1.8 0.8 3.6 2.1 4.9 1.2 1 2.7 1.6 4.3 1.5 0.8 0 1.6-0.1 2.4-0.3 0.6-0.2 1.2-0.5 1.8-0.8 0.5-0.3 1-0.5 1.5-0.8 0.4-0.2 0.9-0.3 1.4-0.3 0.6 0 1.1 0.2 1.5 0.7l2.3 2.9c-0.8 0.9-1.7 1.7-2.7 2.3-0.9 0.6-1.9 1.1-3 1.4-1 0.3-2 0.6-3 0.7s-1.9 0.2-2.9 0.2c-1.8 0-3.6-0.3-5.3-0.9-1.6-0.6-3.1-1.5-4.3-2.7-1.3-1.3-2.3-2.8-2.9-4.5-0.8-2-1.1-4.1-1.1-6.3 0-1.7 0.3-3.5 0.9-5.1 1.2-3.2 3.7-5.8 6.8-7.1 1.7-0.7 3.6-1.1 5.5-1.1zm0.2 5.6c-1.3-0.1-2.6 0.4-3.6 1.3-1 1.1-1.6 2.4-1.7 3.8h10.1c0-0.6-0.1-1.3-0.2-1.9-0.2-0.6-0.4-1.1-0.8-1.6s-0.9-0.9-1.5-1.2c-0.8-0.3-1.5-0.4-2.3-0.4z"/><path d="m372.34 67.539c0.2 0 0.4 0 0.6 0.1s0.4 0.2 0.6 0.4l3.6 3.8c-1.5 2-3.6 3.6-5.9 4.6-2.7 1.1-5.5 1.6-8.4 1.6-2.7 0-5.4-0.5-8-1.5-2.3-1-4.3-2.4-6-4.2s-2.9-4-3.8-6.3c-0.9-2.6-1.3-5.2-1.3-7.9s0.5-5.5 1.5-8c1-2.4 2.4-4.5 4.2-6.3s4-3.2 6.4-4.1c2.6-1 5.4-1.5 8.3-1.5 1.4 0 2.8 0.1 4.1 0.4 1.2 0.2 2.5 0.6 3.6 1.1 1.1 0.4 2.1 1 3.1 1.6 0.9 0.6 1.8 1.3 2.5 2.1l-3.1 4.1c-0.2 0.3-0.4 0.5-0.7 0.7s-0.7 0.3-1.1 0.3c-0.3 0-0.6-0.1-0.9-0.2-0.3-0.2-0.6-0.3-0.9-0.5s-0.7-0.4-1.1-0.7-0.9-0.5-1.4-0.7c-0.6-0.2-1.2-0.4-1.8-0.5-0.8-0.2-1.6-0.2-2.5-0.2-1.5 0-3.1 0.3-4.5 0.9-1.3 0.6-2.5 1.4-3.5 2.5s-1.8 2.5-2.3 3.9c-0.6 1.7-0.8 3.4-0.8 5.2s0.2 3.6 0.8 5.3c0.5 1.4 1.2 2.8 2.2 3.9 0.9 1 2 1.9 3.3 2.4 1.3 0.6 2.6 0.8 4 0.8 0.8 0 1.5 0 2.2-0.1 0.6-0.1 1.3-0.2 1.9-0.4s1.1-0.5 1.7-0.8 1.1-0.7 1.6-1.2c0.2-0.2 0.4-0.3 0.7-0.4 0.5-0.1 0.8-0.2 1.1-0.2z"/><path d="m381.24 77.639v-38.9h8.1v14.3c1-0.8 2-1.5 3.2-2 1.3-0.5 2.7-0.8 4.1-0.8 1.3 0 2.7 0.2 3.9 0.8 1.1 0.5 2.1 1.2 2.9 2.1 0.8 1 1.4 2.1 1.8 3.2 0.4 1.3 0.6 2.7 0.6 4.1v17.1h-8.1v-17c0.1-1.1-0.3-2.2-0.9-3.1-0.7-0.8-1.7-1.2-2.7-1.1-0.9 0-1.7 0.2-2.5 0.6s-1.6 0.9-2.2 1.5v19.2z"/><path d="m421.14 43.339c0 0.6-0.1 1.2-0.4 1.8s-0.6 1.1-1.1 1.5-1 0.8-1.6 1c-0.6 0.3-1.3 0.4-1.9 0.4s-1.3-0.1-1.8-0.4c-0.6-0.2-1.1-0.6-1.5-1s-0.8-0.9-1-1.5c-0.3-0.6-0.4-1.2-0.4-1.8s0.1-1.3 0.4-1.8c0.2-0.6 0.6-1.1 1-1.5s1-0.8 1.5-1c0.6-0.2 1.2-0.4 1.8-0.4 0.7 0 1.3 0.1 1.9 0.4 1.2 0.5 2.1 1.4 2.6 2.5 0.4 0.5 0.5 1.1 0.5 1.8zm-0.9 7.4v27h-8.1v-27z"/><path d="m435.64 38.739v38.9h-8.1v-38.9z"/><path d="m461.34 77.639c-0.4 0-0.9-0.1-1.3-0.3s-0.6-0.6-0.7-1l-0.6-2.1c-0.5 0.6-1.1 1.1-1.7 1.6s-1.2 0.9-1.9 1.2-1.4 0.6-2.2 0.8-1.7 0.3-2.6 0.3c-1.4 0-2.7-0.3-3.9-0.9s-2.3-1.6-3.1-2.7c-0.9-1.3-1.6-2.8-2-4.3-0.5-1.9-0.8-3.9-0.7-5.8 0-1.9 0.3-3.8 0.8-5.6 0.5-1.6 1.3-3.1 2.4-4.5 1-1.2 2.2-2.2 3.7-3 1.5-0.7 3.1-1.1 4.7-1.1 1.2 0 2.4 0.2 3.5 0.6 0.9 0.4 1.8 0.9 2.6 1.6v-13.7h8.1v38.9zm-8.2-5.7c0.5 0 1.1-0.1 1.6-0.2s0.9-0.3 1.3-0.5 0.8-0.5 1.1-0.8c0.4-0.3 0.7-0.7 1.1-1.1v-11.4c-0.5-0.6-1.2-1.1-2-1.4-0.7-0.3-1.5-0.4-2.2-0.4s-1.4 0.1-2.1 0.4-1.2 0.8-1.6 1.4c-0.5 0.8-0.9 1.6-1.1 2.5-0.3 1.2-0.4 2.5-0.4 3.8 0 1.2 0.1 2.4 0.3 3.6 0.2 0.8 0.4 1.6 0.9 2.4 0.3 0.5 0.8 1 1.3 1.3 0.6 0.2 1.2 0.4 1.8 0.4z"/><path d="m472.74 77.639v-27h4.8c0.3 0 0.7 0 1 0.1 0.2 0.1 0.5 0.2 0.7 0.3 0.2 0.2 0.3 0.4 0.4 0.6 0.1 0.3 0.2 0.6 0.2 0.9l0.4 2.5c0.9-1.4 2-2.6 3.3-3.6 1.2-0.9 2.6-1.3 4-1.3 1.1-0.1 2.1 0.3 3 0.9l-1 5.9c0 0.3-0.2 0.6-0.4 0.8s-0.5 0.2-0.8 0.2-0.7 0-1-0.1c-0.5-0.1-1-0.1-1.5-0.1-2.1 0-3.8 1.1-5 3.4v16.5z"/><path d="m505.24 50.239c1.7 0 3.3 0.3 4.9 0.8 1.4 0.5 2.7 1.3 3.8 2.4s2 2.4 2.5 3.9c0.6 1.7 0.9 3.4 0.9 5.2 0 0.5 0 1-0.1 1.5 0 0.3-0.1 0.6-0.3 0.9-0.1 0.2-0.3 0.4-0.6 0.5s-0.6 0.1-0.9 0.1h-15.5c0.1 1.8 0.8 3.6 2.1 4.9 1.2 1 2.7 1.6 4.3 1.5 0.8 0 1.6-0.1 2.4-0.3 0.6-0.2 1.2-0.5 1.8-0.8 0.5-0.3 1-0.5 1.5-0.8 0.4-0.2 0.9-0.3 1.4-0.3 0.6 0 1.1 0.2 1.5 0.7l2.3 2.9c-0.8 0.9-1.7 1.7-2.7 2.3-0.9 0.6-1.9 1.1-3 1.4-1 0.3-2 0.6-3 0.7s-1.9 0.2-2.9 0.2c-1.8 0-3.6-0.3-5.3-0.9-1.6-0.6-3.1-1.5-4.3-2.7-1.3-1.3-2.3-2.8-2.9-4.5-0.8-2-1.1-4.1-1.1-6.3 0-1.7 0.3-3.5 0.9-5.1 1.2-3.2 3.7-5.8 6.8-7.1 1.7-0.7 3.6-1.1 5.5-1.1zm0.2 5.6c-1.3-0.1-2.6 0.4-3.6 1.3-1 1.1-1.6 2.4-1.7 3.8h10c0-0.6-0.1-1.3-0.2-1.9-0.2-0.6-0.4-1.1-0.8-1.6s-0.9-0.9-1.5-1.2c-0.7-0.3-1.5-0.4-2.2-0.4z"/><path d="m522.54 77.639v-27h5c0.4 0 0.9 0.1 1.3 0.3s0.6 0.6 0.7 1l0.5 1.6c0.5-0.5 1.1-0.9 1.6-1.4 0.6-0.4 1.2-0.8 1.8-1.1 0.7-0.3 1.3-0.5 2.1-0.7s1.6-0.3 2.4-0.2c1.3 0 2.7 0.2 3.9 0.8 1.1 0.5 2.1 1.2 2.9 2.1 0.8 1 1.4 2.1 1.8 3.2 0.4 1.3 0.6 2.7 0.6 4.1v17.1h-8.1v-16.9c0.1-1.1-0.3-2.2-0.9-3.1-0.7-0.8-1.7-1.2-2.7-1.1-0.9 0-1.7 0.2-2.5 0.6s-1.6 0.9-2.2 1.5v19.2z"/><path class="st0" d="m100.54 28.34c4.8-5.6 6.9-8.2 6.4-9.7-0.60001-1.3-1.8-2.3-3.1-2.6-1.8-0.7-4.3-1-5.5-0.3-1 0.8-1.9 1.8-2.7 2.8l-1.5 1.7c-1-1-2-2-3-2.8-7.3-6.4-16.3-10.5-25.9-12-3.9-4.1-8.9-6-13.9-5.3-4.3 0.7-8.1 3.3-10.4 7-9.9 3-18.7 8.6-25.7 16.3-1.6-0.5-5 0.1-7.2 1.3-1 0.4-1.8 1.3-2.1 2.3-0.1 0.7 0.2 1.7 2.8 4.8-6.9 10.9-9.8 23.8-8.4 36.6 1.5 12.8 7.6 24.6 17.3 33.1 3.4 3 7.2 5.5 11.2 7.4 18.8 9.1 40.8 8.3 58.9-2.1 1.5-0.9 2-2.7 1.3-4.2l-0.2-0.5c-3-6.6-12-26.9-7-45.3 2.1-7.7 8.2-15.9 13.4-22.4 5.6 8.6 8.4 18.8 8 29.1-0.30001 9.4-3.5 18.5-9.2 26-0.3 0.3-0.3 0.7-0.2 1.1l0.6 1.3c0.3 0.5 0.9 0.8 1.4 0.5 0.2-0.1 0.3-0.2 0.4-0.3 14.9-18.6 16.7-44.5 4.3-63.8zm-65.5 43.6c-2 10.1-2.4 20.5-1.3 30.8-3.8-1.9-7.4-4.4-10.7-7.2-8.8-7.6-14.7-18-16.8-29.5-2-10.7-0.2-21.8 5.1-31.3 2 2.1 4.4 4.5 6.9 6.9 6.1 6.1 13.1 13 16.5 17.9 2 2.8 1.4 6.4 0.3 12.4m53.5-45.7c-11.3 11.4-22 17.6-31.7 18.3-7.5 0.6-15.4-1.7-23.5-6.6-5.4-3.4-10.5-7.4-15-11.9l-0.3-0.3c5.6-6 12.6-10.3 20.5-12.7-0.8 3.2-1 6.4-0.5 9.7 0.8 5.7 3.8 10.8 8.3 14.3 6.4 5 15.6 3.8 20.6-2.5 0.2-0.3 0.4-0.5 0.6-0.8 3.3-4.7 4.5-10.5 3.6-16.2-0.2-1.1-0.4-2.2-0.7-3.2 5.7 2.2 11 5.3 15.5 9.4 0.8 0.7 1.7 1.5 2.6 2.5z" fill="#da291c"/></svg>
